<svg width="386" height="386" fill="none" xmlns="http://www.w3.org/2000/svg"><path d="M361.3 229.36a1.337 1.337 0 001.6-.23 8.377 8.377 0 013.88-2 2.913 2.913 0 011.32 0 1.866 1.866 0 011.56 2 2.934 2.934 0 01-2.78 2.15 4.143 4.143 0 00-.58-1.48 1.654 1.654 0 00-1.838-.72c-.228.061-.44.17-.622.32-.69.39-.42 1.24.26 1.67 4 2.5 7.943 5.113 11.83 7.84a5.6 5.6 0 003.93 1 10.536 10.536 0 01-3.354 5.533 10.538 10.538 0 01-5.956 2.527c-5.32.31-10.63.46-15.87.47-5.24.01-10.41-.1-15.67-.41l.58-1.47.5-1.49 1-3c3.8.06 7.68.05 11.49-.05a5.805 5.805 0 002.19-.46 4.427 4.427 0 002.05-1.75l2.38-4.06 2.18-4.17a1.17 1.17 0 00-.44-1.54c-1.38-.86-4.42-2.68-6-3.61a8.158 8.158 0 00-4.82-1.1 10.32 10.32 0 00-4.88 1.95c.25-1.13.55-2.26.77-3.4l.61-3.43c4.92 2.8 9.93 5.78 14.68 8.91zm.66 2.89c-.71 1.36-1.39 2.71-2.12 4l-2.3 3.93a1.064 1.064 0 00.048 1.066 1.064 1.064 0 00.952.484c4.893-.247 9.82-.62 14.78-1.12a1.195 1.195 0 001.019-.883 1.195 1.195 0 00-.459-1.267 249.671 249.671 0 00-10.16-6.73 1.23 1.23 0 00-.972-.109 1.247 1.247 0 00-.748.629h-.04zm-92.57 115.02a1.311 1.311 0 001.17 1.09 7.996 7.996 0 014 1.75c.346.284.623.643.81 1.05a1.82 1.82 0 01-.65 2.46 2.837 2.837 0 01-3.38-.77 4.27 4.27 0 00.78-1.41 1.654 1.654 0 00-.58-1.886 1.648 1.648 0 00-.64-.284c-.73-.29-1.22.47-1.12 1.28.55 4.71.93 9.34 1.23 14.09a5.598 5.598 0 001.68 3.69 10.802 10.802 0 01-6.56.85 10.089 10.089 0 01-5.55-3.11 272.595 272.595 0 01-19.71-24.57l6-2a285.6 285.6 0 007.18 8.87 6.016 6.016 0 001.74 1.45 4.55 4.55 0 002.66.56c3.08-.44 6.15-1 9.28-1.56.291-.067.546-.241.714-.488.169-.246.239-.547.196-.842-.2-1.63-.68-5.16-1-7a8.167 8.167 0 00-2.15-4.46 9.918 9.918 0 00-4.53-2.53l6.2-3.18a258.58 258.58 0 012.23 16.95zm-1.83 2.36c-3 .52-6 1.1-9 1.51a.995.995 0 00-.865.669 1.006 1.006 0 00.265 1.061c1.63 1.85 3.29 3.69 5 5.51a370.6 370.6 0 005.11 5.33 1.204 1.204 0 001.297.198 1.198 1.198 0 00.703-1.108c-.27-4.06-.61-8.07-1-12.07a1.271 1.271 0 00-.511-.885 1.253 1.253 0 00-.999-.215zM76.47 337.92a10 10 0 00.08 6.34 10.5 10.5 0 001.52 2.92c.7.903 1.529 1.698 2.46 2.36a5.599 5.599 0 012.36-3.29c4.94-3.17 9.68-6.37 14.36-9.81 4.68-3.44 9.2-7 13.57-10.63-1.95-1.27-3.93-2.48-5.85-3.79a10.25 10.25 0 01.06 5.2 8.167 8.167 0 01-2.8 4.08c-.73.57-5.18 4.09-9.52 7.19-4.34 3.1-8.68 6-8.68 6a1.204 1.204 0 01-1.33-.046 1.197 1.197 0 01-.47-1.244c1.43-5.17 3.11-10.42 4.85-15.48 1.74-5.06 3.59-10 5.65-15l-4.77-4.13A293.908 293.908 0 0081.85 323a327.648 327.648 0 00-2.8 7.42c-.92 2.51-1.76 4.99-2.58 7.5zm-25.74-25.09a10 10 0 00-1.13 6.23 11.11 11.11 0 00.93 3.17c.526 1.02 1.2 1.957 2 2.78a5.612 5.612 0 012.95-2.78c5.46-2.16 10.74-4.41 16-6.88 5.26-2.47 10.37-5.1 15.36-7.84-1.67-1.62-3.4-3.18-5-4.84a10.388 10.388 0 01-.95 5.12 8.17 8.17 0 01-3.53 3.47c-.83.43-5.86 3-10.72 5.22-4.86 2.22-9.68 4.24-9.68 4.24a1.204 1.204 0 01-1.297-.291 1.199 1.199 0 01-.233-1.309c2.41-4.82 5-9.63 7.72-14.27 2.72-4.64 5.43-9.14 8.42-13.63l-3.9-5a271.424 271.424 0 00-8.75 13c-2.92 4.44-5.64 9.01-8.19 13.61zM135.55 363a13.19 13.19 0 016.77-7.3 13.673 13.673 0 019.67-1.2 2.061 2.061 0 002.38-1.27l2-8.49 3.06.71c1 .24 2 .49 3.07.65l-6.46 32.85a4.098 4.098 0 00.78 3.29c-1.38-.26-2.78-.47-4.14-.81l-6.81-1.57a15.502 15.502 0 01-9.06-6.56 12.003 12.003 0 01-1.26-10.3zm6.39 2.27a15.7 15.7 0 00-.2 7.83 8.328 8.328 0 006.45 6.49 1.574 1.574 0 002.047-1.303 1.564 1.564 0 00-.157-.897 6.777 6.777 0 01-.44-4.45l3.75-15.68a1.852 1.852 0 00-1.44-1.94c-2-.48-4.17.89-6 3a20.21 20.21 0 00-4.01 6.95zM23.63 202.66c3.517-.19 6.973.981 9.65 3.27a14.893 14.893 0 013.18 3.74 11.173 11.173 0 011.63 4.48c.27 2.64.83 5.23 1.27 7.84l-3.07.58-32.9 6.21c-.44-2.55-1-5.08-1.31-7.64l8.64-1.27a2.24 2.24 0 001.47-2.44 14.099 14.099 0 01.34-5.31 13.377 13.377 0 012.36-4.65 12.116 12.116 0 018.74-4.81zm.72 6.35a18.509 18.509 0 00-7.55 2.65c-2.35 1.49-4.07 3.56-3.78 5.83.11.88.95 1.88 1.8 1.76l16-2.35a7.845 7.845 0 014.36.6 1.603 1.603 0 002.165-.686 1.6 1.6 0 00.175-.814c-.4-3.18-2.73-5-5.45-6a18.702 18.702 0 00-7.72-1v.01zm-17.99-8.7l30.4-1.2-.16-6.28H0c.1 3.63.13 7.26.32 10.88.04-.36.9-3.21 6.04-3.4zm284.1 114.47c-1.67 1.28-3.27 2.64-5 3.86l3 4a13.538 13.538 0 012.69 7.28l.18 3.88a1.285 1.285 0 01-1.238 1.374 1.283 1.283 0 01-.662-.154c-5.25-2.78-10.34-5.78-15.19-8.86-1.8 1.08-3.64 2.1-5.45 3.16a211.813 211.813 0 007 4.68c2.38 1.53 4.81 3 7.24 4.44a2.668 2.668 0 011.23 3l5.79-3.71a.928.928 0 01.953-.04.926.926 0 01.487.82c0 3.35 0 6.72-.16 10.15a229.358 229.358 0 01-.26 5.17c-.11 1.73-.27 3.42-.43 5.15l2.21-1.28 2.15-1.37 4.29-2.75c-2.9.65-5.31 1-6.56-1.48l-.12-.27a6.224 6.224 0 01-.46-2.7c.12-3.33.2-6.57.16-9.84-.04-3.27-.18-6.55-.38-9.75a.718.718 0 01.968-.715.72.72 0 01.362.295l14 18.93c1.36-.93 2.62-2 3.93-3l2.22-1.75 1.09-.86a4.21 4.21 0 01-3-1.48l-21.04-26.18zm-67.36 31.33l-6.2 1.11.77 5c.428 2.606.081 5.28-1 7.69l-1.64 3.5a1.305 1.305 0 01-1.073.743 1.301 1.301 0 01-1.177-.563c-3.35-4.78-6.48-9.91-9.35-14.9-1 .07-2.09.19-3.14.21l-3.15.08c1.28 2.48 2.613 4.957 4 7.43 1.39 2.42 2.84 4.82 4.35 7.22a2.655 2.655 0 01-.3 3.22l3.43-.26c1.14-.08 2.29-.17 3.42-.33a.919.919 0 01.91 1.34c-1.52 3.07-3.14 6-4.85 8.94-1.71 2.94-3.5 5.91-5.39 8.87 3.39-.25 6.77-.49 10.16-.79-2.86-.76-5.17-1.62-5.13-4.39v-.29a6.157 6.157 0 01.85-2.59 231.434 231.434 0 002.42-4.28c.78-1.44 1.54-2.93 2.29-4.39 1.48-2.933 2.88-5.857 4.2-8.77a.721.721 0 011.183-.183.718.718 0 01.187.423l3.59 23.24 4.88-.86 2.78-.5 1.37-.25a4.22 4.22 0 01-2-2.7l-6.39-32.97zm100.57-44.42a16.848 16.848 0 01-5.62-8.25c-.88-3.21-.32-6.56 2.19-10.22l.17-.24c.85-1.25 1.8-2.43 2.59-3.72l2.45-3.82 28.49 17.79a4.21 4.21 0 003.3.42L355 297.2c-.9 1.37-1.75 2.78-2.69 4.12l-4.29 6c-1.44 2-3 3.9-4.53 5.85l-6.86-5.49a9.268 9.268 0 004.21.06 14.624 14.624 0 004.58-1.69 23.704 23.704 0 005.42-4.53.857.857 0 00.138-1.009.848.848 0 00-.238-.271L345 296.4a1.662 1.662 0 00-1.45-.11 5 5 0 00-2 2A13.77 13.77 0 01333 304a10.764 10.764 0 01-9.33-2.31zm3.25-5.6a16.845 16.845 0 007.49 3.18c2.89.4 5.77-.34 7.6-3.07a1.54 1.54 0 00-.4-2.14L328.3 285a7.915 7.915 0 01-2.81-3.4 1.644 1.644 0 00-.983-.987 1.66 1.66 0 00-1.387.117 9.839 9.839 0 00-.86 1.13 7.484 7.484 0 00-1.05 7.53c.93 2.34 3.01 4.61 5.72 6.7h-.01zM40.07 229.24a1.452 1.452 0 01-1.17 1.65l-21.12 5.2-9.17 2.26a4.104 4.104 0 01-3.3-.62l.32 1.36.43 1.91.52 1.87 1.06 3.73 25.69-7.44c4.94-1.44 8.35-3 9.49.88l2.28 6.74c1.47 3.74-2.2 4.6-7 6.47l-24.9 9.69c1 2.4 1.85 4.83 3 7.17l.57 1.27a4.121 4.121 0 012.24-2.5l8.65-3.79 22.06-9.66c-.83-1.72-1.48-3.52-2.19-5.29s-1.45-3.54-2-5.36l-1.84-5.43-1.56-5.51a5.94 5.94 0 01.91-5.1c2.61-3.82 7.84-6.28 7.84-6.28l-11.77 2.44.96 4.34zm122.28 154c.67.12 1.33.24 2 .31a8.798 8.798 0 008.6-3.74c2.47-3.88 4.82-7.89 7-11.84 2.18-3.95 4.29-7.91 6.24-12a1.171 1.171 0 012.24.61l-.76 29c2.58.05 5.15.17 7.73.06h1.39a4.127 4.127 0 01-1.43-3l-.13-9.45L195 349h-1.64a7.586 7.586 0 00-6.82 4.65c-1.92 4.12-4 8.07-6.15 12-2.15 3.93-4.5 8-6.95 11.85-.17.243-.416.423-.698.513a1.354 1.354 0 01-1.55-.545 1.366 1.366 0 01-.222-.838l3.4-28.79c-2.07-.29-4.16-.48-6.22-.84l-5.26 33.11A4.095 4.095 0 01161 383l1.35.24zM96 359.54l1.76 1a8.535 8.535 0 009.38-.39c1.86-1.367 3.687-2.75 5.48-4.15 1.79-1.39 3.57-2.82 5.33-4.3 3.513-2.94 6.903-5.94 10.17-9a1.1 1.1 0 011.49-.11 1.212 1.212 0 01.37 1.5l-11.14 26.78 7.22 2.84c.43.18.87.32 1.31.47a4.102 4.102 0 01-.25-3.36l3.27-8.86 8.34-22.59-1.53-.61c-2.61-1.06-5.75-.2-8 1.93a225.76 225.76 0 01-20.82 17.51 1.352 1.352 0 01-2.081-.804 1.347 1.347 0 01.081-.856L119.86 331l-1.4-.71-1.36-.78-2.72-1.57-16.87 29a4.185 4.185 0 01-2.76 2l1.25.6zM19.26 276.9l.92 1.81a8.612 8.612 0 008 4.92 248.52 248.52 0 0013.71-1l3.36-.36 3.39-.44c2.253-.307 4.49-.64 6.71-1a1.17 1.17 0 01.75 2.2L31.9 299l1 1.63 1.12 1.58 2.24 3.16.81 1.13a4.196 4.196 0 011.68-2.93l7.66-5.52L66 284l-1-1.34a7.835 7.835 0 00-7.73-2.9c-4.4.74-9 1.42-13.43 1.87-4.43.45-9 .83-13.66 1.07a1.35 1.35 0 01-1.37-1 1.3 1.3 0 01.63-1.53l25.55-13.69-2.86-5.59L22 275.56a4.103 4.103 0 01-3.36.08c.22.42.36.85.62 1.26zm304.65 57.32s-.31.17-.8.41c-.627.313-1.28.574-1.95.78-1.54.48-3.34.78-4.44.13a2.167 2.167 0 01-.67-.89 6.413 6.413 0 01-.48-1.38c-.71-3-1.42-5.94-2.25-8.91-.83-2.97-1.71-5.89-2.64-8.77a1.137 1.137 0 01.308-1.2 1.137 1.137 0 011.222-.21c3.88 1.55 7.71 2.88 11.68 4.2 3.97 1.32 8 2.55 12.07 3.65l5.09-5.87a233.33 233.33 0 01-27.19-8l-2.87 3a1.248 1.248 0 01-1.682-.049 1.238 1.238 0 01-.318-.521l-.88-2.48-.68-1.82c-.53-1.42-1.1-3.91.92-4.34a2.508 2.508 0 012.13.66 4.721 4.721 0 000-1.85 2.8 2.8 0 00-2.42-2.3c-1.89-.37-3.92 1.52-2.82 4.37.59 1.52 1.19 3.06 1.73 4.59.54 1.53 1.07 3.06 1.59 4.61 1.033 3.1 2.013 6.25 2.94 9.45.95 3.23 1.74 6.39 2.51 9.65.77 3.26 1.47 6.55 2.12 9.89l3.89-3.36c1.37-1.12 2.67-2.24 3.89-3.44zm25.39-59.35a.297.297 0 01.35-.057.3.3 0 01.16.317 13.5 13.5 0 000 5.94 6.875 6.875 0 003.24 4.2c2.3 1.33 5 1 7.49-.39a17.466 17.466 0 006.33-7.19c2-4.24 1.92-7.64 1.17-10.1a11.73 11.73 0 00-3.24-4.93 17 17 0 01-3.06 3.15c-1.36 1.17-2.62 2.17-2.62 2.17a8.8 8.8 0 015.54 2.72c1.66 1.69 2.7 4.14 1.39 6.76-1.41 2.77-5.37 2.89-8.66 1.31s-6-4.75-4.93-8.43A6.39 6.39 0 01354 268a10.88 10.88 0 011.15-1.07l-4.35-2-1.38-.63-.09.22.25.23c1.33 1.21 3.06 3.81 1.7 5.33-2.78 3.09-7.85 2-11.9-.59-4.05-2.59-7.16-6.35-5.87-8.85 1.39-3.07 5.33-3 9-2.13a34.916 34.916 0 016.87 2.47l-.43-2.16-.52-2.17-1.08-4.26c-1.96.014-3.908.317-5.78.9-3 1-6.73 2.84-8.62 7.06a15.34 15.34 0 00-1.63 5.11 13.854 13.854 0 00-.09 2.46c.014.774.105 1.544.27 2.3a11.067 11.067 0 005.21 7.2 9 9 0 006.7 1.13 11.175 11.175 0 005.89-3.68zM24.38 156.29a1.337 1.337 0 00-1.6.23 8.373 8.373 0 01-3.88 2 2.913 2.913 0 01-1.32 0 1.867 1.867 0 01-1.56-2 2.93 2.93 0 012.78-2.15c.096.526.293 1.029.58 1.48a1.665 1.665 0 001.14.756 1.65 1.65 0 001.32-.356c.69-.39.42-1.24-.26-1.67-4-2.5-7.943-5.113-11.83-7.84a5.6 5.6 0 00-3.93-1 10.53 10.53 0 019.31-8.06c5.32-.31 10.63-.46 15.87-.47 5.24-.01 10.41.1 15.67.41l-.58 1.47-.5 1.49-1 3c-3.8-.06-7.68-.05-11.49.05a5.807 5.807 0 00-2.19.46 4.43 4.43 0 00-2.05 1.75l-2.38 4.06-2.18 4.17a1.17 1.17 0 00.44 1.54c1.38.86 4.42 2.68 6 3.61a8.16 8.16 0 004.82 1.1 10.324 10.324 0 004.88-1.95c-.25 1.13-.55 2.26-.77 3.4l-.61 3.43c-4.92-2.8-9.93-5.78-14.68-8.91zm-.66-2.89c.71-1.36 1.39-2.71 2.12-4l2.3-3.93a1.06 1.06 0 00-1-1.55c-4.893.247-9.82.62-14.78 1.12a1.195 1.195 0 00-1.019.883 1.187 1.187 0 00.459 1.267 249.88 249.88 0 0010.16 6.73 1.231 1.231 0 00.995.129 1.237 1.237 0 00.765-.649zm92.57-115.02a1.312 1.312 0 00-1.17-1.09 7.997 7.997 0 01-4-1.75 2.95 2.95 0 01-.81-1.05 1.819 1.819 0 01.65-2.46 2.84 2.84 0 013.38.77 4.27 4.27 0 00-.78 1.41 1.654 1.654 0 00.58 1.886c.191.14.409.236.64.284.73.29 1.22-.47 1.12-1.28-.55-4.71-.93-9.34-1.23-14.09a5.598 5.598 0 00-1.67-3.7 10.8 10.8 0 016.56-.85 10.09 10.09 0 015.55 3.11 272.637 272.637 0 0119.71 24.57l-6 2a285.719 285.719 0 00-7.18-8.87 6.002 6.002 0 00-1.74-1.45 4.55 4.55 0 00-2.66-.56c-3.08.44-6.15 1-9.28 1.56a1.187 1.187 0 00-.91 1.33c.2 1.63.68 5.16 1 7a8.167 8.167 0 002.15 4.46 9.92 9.92 0 004.53 2.53l-6.2 3.18a254.096 254.096 0 01-2.24-16.94zm1.83-2.38c3-.52 6-1.1 9-1.51a1 1 0 00.6-1.73c-1.63-1.85-3.29-3.69-5-5.51a370.6 370.6 0 00-5.11-5.33 1.202 1.202 0 00-1.813.252 1.2 1.2 0 00-.187.658c.27 4.06.61 8.07 1 12.07a1.266 1.266 0 00.511.885 1.26 1.26 0 00.999.215zm191.09 11.72a9.996 9.996 0 00-.08-6.34 10.498 10.498 0 00-1.52-2.92 11.669 11.669 0 00-2.46-2.36 5.603 5.603 0 01-2.36 3.29c-4.94 3.17-9.68 6.37-14.36 9.81-4.68 3.44-9.2 7-13.57 10.63 1.95 1.27 3.93 2.48 5.85 3.79a10.25 10.25 0 01-.06-5.2 8.167 8.167 0 012.8-4.08c.73-.57 5.18-4.09 9.52-7.19 4.34-3.1 8.68-6 8.68-6a1.2 1.2 0 011.8 1.29c-1.43 5.17-3.11 10.42-4.85 15.48-1.74 5.06-3.59 10-5.65 15l4.79 4.08a233.795 233.795 0 006.11-14.37c.96-2.453 1.893-4.927 2.8-7.42.89-2.49 1.73-4.97 2.56-7.49zm25.74 25.1a10.004 10.004 0 001.13-6.23 11.109 11.109 0 00-.93-3.17 11.652 11.652 0 00-2-2.78 5.613 5.613 0 01-2.95 2.78c-5.46 2.16-10.74 4.41-16 6.88-5.26 2.47-10.37 5.1-15.36 7.84 1.67 1.62 3.4 3.18 5 4.84-.123-1.76.204-3.522.95-5.12a8.173 8.173 0 013.53-3.47c.83-.43 5.86-3 10.72-5.22 4.86-2.22 9.68-4.24 9.68-4.24a1.2 1.2 0 011.53 1.6c-2.41 4.82-5 9.63-7.72 14.27-2.72 4.64-5.43 9.14-8.42 13.63l3.9 5c3.013-4.207 5.93-8.54 8.75-13 2.9-4.43 5.64-9.01 8.19-13.61zm-84.82-50.17a13.187 13.187 0 01-6.77 7.3 13.67 13.67 0 01-9.67 1.2 2.06 2.06 0 00-2.38 1.27l-2 8.49-3.06-.71c-1-.24-2-.49-3.07-.65l6.44-32.85a4.1 4.1 0 00-.78-3.29c1.38.26 2.78.47 4.14.81l6.81 1.57a15.5 15.5 0 019.06 6.56 11.996 11.996 0 011.28 10.3zm-6.39-2.27a15.7 15.7 0 00.2-7.83 8.328 8.328 0 00-6.45-6.49 1.57 1.57 0 00-1.89 2.2 6.78 6.78 0 01.4 4.44l-3.75 15.68a1.848 1.848 0 001.44 1.94c2 .48 4.17-.89 6-3a20.21 20.21 0 004.05-6.94zM362 183a13.712 13.712 0 01-9.65-3.27 14.906 14.906 0 01-3.18-3.74 11.185 11.185 0 01-1.63-4.48c-.27-2.64-.83-5.23-1.27-7.84l3.07-.58 32.9-6.21c.44 2.55 1 5.08 1.31 7.64l-8.55 1.27a2.24 2.24 0 00-1.47 2.44 14.099 14.099 0 01-.34 5.31 13.375 13.375 0 01-2.36 4.65A12.117 12.117 0 01362 183zm-.72-6.35a18.506 18.506 0 007.55-2.65c2.35-1.49 4.07-3.56 3.78-5.83-.11-.88-.95-1.88-1.8-1.76l-16 2.35a7.845 7.845 0 01-4.36-.6 1.608 1.608 0 00-1.632.039 1.605 1.605 0 00-.748 1.451c.4 3.18 2.73 5 5.45 6a18.707 18.707 0 007.81.99l-.05.01zm18.04 8.69l-30.4 1.2.16 6.28h36.6c-.1-3.63-.13-7.26-.32-10.88-.04.36-.9 3.21-6.04 3.4zM95.22 70.87c1.67-1.28 3.27-2.64 5-3.86l-3-4a13.55 13.55 0 01-2.69-7.28l-.18-3.88a1.29 1.29 0 011.9-1.22c5.25 2.78 10.34 5.78 15.19 8.86 1.8-1.08 3.64-2.1 5.45-3.16a213.083 213.083 0 00-7-4.68c-2.38-1.53-4.81-3-7.24-4.44a2.667 2.667 0 01-1.23-3l-5.79 3.71a.94.94 0 01-1.44-.78c0-3.35 0-6.72.16-10.15.067-1.713.153-3.437.26-5.17.11-1.73.27-3.42.43-5.15l-2.21 1.28-2.15 1.37L86.42 32c2.9-.65 5.31-1 6.56 1.48l.12.27a6.23 6.23 0 01.46 2.7c-.12 3.33-.2 6.57-.16 9.84.04 3.27.18 6.55.38 9.75a.72.72 0 01-1.33.42l-14-18.93c-1.36.93-2.62 2-3.93 3l-2.22 1.75-1.09.86a4.2 4.2 0 013 1.48l21.01 26.25zm67.35-31.33l6.2-1.11-.77-5a13.467 13.467 0 011-7.69l1.64-3.5a1.306 1.306 0 011.073-.743 1.3 1.3 0 011.177.563c3.35 4.78 6.48 9.91 9.35 14.9 1-.07 2.09-.19 3.14-.21l3.15-.08a243.724 243.724 0 00-4-7.43c-1.39-2.42-2.84-4.82-4.35-7.22a2.654 2.654 0 01.3-3.22l-3.43.26c-1.14.08-2.29.17-3.42.33a.918.918 0 01-1.012-.862.913.913 0 01.102-.478c1.52-3.07 3.14-6 4.85-8.94 1.71-2.94 3.5-5.91 5.39-8.87-3.39.25-6.77.49-10.16.79 2.86.76 5.17 1.62 5.13 4.39v.29a6.153 6.153 0 01-.93 2.6 231.337 231.337 0 00-2.42 4.28c-.78 1.44-1.54 2.93-2.29 4.39a232.332 232.332 0 00-4.2 8.77.719.719 0 01-1.37-.24l-3.53-23.24-4.88.86-2.78.5-1.37.25a4.233 4.233 0 012 2.7l6.41 32.96zM62 84a16.85 16.85 0 015.62 8.25c.88 3.21.32 6.56-2.19 10.22l-.17.24c-.85 1.25-1.8 2.43-2.59 3.72l-2.45 3.82-28.47-17.83a4.21 4.21 0 00-3.3-.42l2.27-3.55c.9-1.37 1.75-2.78 2.69-4.12l4.29-6c1.44-2 3-3.9 4.53-5.85L49.1 78a9.26 9.26 0 00-4.21-.06c-1.61.303-3.159.874-4.58 1.69a23.72 23.72 0 00-5.42 4.53.85.85 0 00.11 1.24l5.65 3.85a1.672 1.672 0 001.45.11 5 5 0 002-2 13.77 13.77 0 018.52-5.69A10.76 10.76 0 0162 84zm-3.25 5.6a16.84 16.84 0 00-7.49-3.18c-2.89-.4-5.77.34-7.6 3.07a1.54 1.54 0 00.4 2.14l13.32 9.08a7.915 7.915 0 012.81 3.4 1.647 1.647 0 001.69 1.082c.239-.02.471-.093.68-.212.313-.356.6-.733.86-1.13a7.479 7.479 0 001.05-7.53c-.93-2.4-3.02-4.68-5.72-6.77v.05zm286.86 66.81a1.45 1.45 0 011.17-1.65l21.12-5.2 9.17-2.26a4.103 4.103 0 013.3.62l-.32-1.36-.44-1.89-.52-1.87-1.09-3.72-25.69 7.44c-4.94 1.44-8.35 3-9.49-.88l-2.28-6.74c-1.47-3.74 2.2-4.6 7-6.47l24.91-9.73c-1-2.4-1.85-4.83-3-7.17l-.57-1.27a4.115 4.115 0 01-2.24 2.5l-8.64 3.8-22 9.66c.83 1.72 1.48 3.52 2.19 5.29s1.45 3.54 2 5.36l1.81 5.43 1.56 5.51a5.938 5.938 0 01-.91 5.1c-2.61 3.82-7.84 6.28-7.84 6.28l11.77-2.44-.97-4.34zm-122.28-154c-.67-.12-1.33-.24-2-.31a8.802 8.802 0 00-8.6 3.74c-2.47 3.88-4.82 7.89-7 11.84-2.18 3.95-4.29 7.91-6.24 12a1.173 1.173 0 01-1.389.683 1.171 1.171 0 01-.851-1.293l.76-29c-2.58-.05-5.15-.17-7.73-.06h-1.39a4.13 4.13 0 011.43 3l.13 9.45.32 24.08h1.64a7.588 7.588 0 006.76-4.54c1.92-4.12 4-8.07 6.15-12 2.15-3.93 4.5-8 6.95-11.85a1.364 1.364 0 011.565-.501 1.365 1.365 0 01.905 1.371l-3.4 28.79c2.07.29 4.16.48 6.22.84l5.26-33.11a4.095 4.095 0 011.86-2.79l-1.35-.34zm66.38 23.7l-1.76-1a8.54 8.54 0 00-9.38.39 234.834 234.834 0 00-5.48 4.15c-1.79 1.39-3.57 2.82-5.33 4.3a243.132 243.132 0 00-10.17 9 1.1 1.1 0 01-1.49.11 1.212 1.212 0 01-.37-1.5l11.14-26.78-7.22-2.84c-.43-.18-.87-.32-1.31-.47a4.103 4.103 0 01.25 3.36l-3.27 8.86L247 46.23l1.53.61c2.61 1.06 5.75.2 8-1.93a225.777 225.777 0 0120.83-17.51 1.35 1.35 0 012 1.66l-13.54 25.62 1.4.71 1.36.78 2.72 1.57 16.87-29a4.192 4.192 0 012.76-2l-1.22-.63zm76.71 82.64l-.92-1.81a8.612 8.612 0 00-8-4.92 248.52 248.52 0 00-13.71 1l-3.36.36-3.39.44c-2.253.307-4.49.64-6.71 1a1.17 1.17 0 01-.75-2.2l24.19-16-1-1.63-1.17-1.59-2.24-3.16-.81-1.13a4.188 4.188 0 01-1.69 2.89l-7.66 5.52-19.53 14.08 1 1.34a7.836 7.836 0 007.73 2.9c4.4-.74 9-1.42 13.43-1.87 4.43-.45 9-.83 13.66-1.07a1.353 1.353 0 011.37 1 1.3 1.3 0 01-.63 1.53l-25.55 13.69 2.86 5.59 30.16-14.63a4.097 4.097 0 013.3-.08c-.18-.41-.37-.84-.58-1.25zM61.76 51.43s.31-.17.8-.41a12.73 12.73 0 011.95-.78c1.54-.48 3.34-.78 4.44-.13.297.233.528.54.67.89.212.44.373.903.48 1.38.71 3 1.42 5.94 2.25 8.91.83 2.97 1.71 5.88 2.65 8.71a1.14 1.14 0 01-1.53 1.41c-3.88-1.55-7.71-2.88-11.68-4.2-3.97-1.32-8-2.55-12.07-3.65l-5.09 5.87a233.363 233.363 0 0127.19 8l2.87-3a1.24 1.24 0 012 .57l.88 2.48.68 1.82c.53 1.42 1.1 3.91-.92 4.34a2.511 2.511 0 01-2.17-.64 4.71 4.71 0 000 1.85 2.8 2.8 0 002.42 2.3c1.89.37 3.92-1.52 2.82-4.37-.59-1.52-1.19-3.06-1.73-4.59-.54-1.53-1.11-3.02-1.67-4.57a277.078 277.078 0 01-2.9-9.45c-.95-3.23-1.74-6.39-2.51-9.65-.77-3.26-1.47-6.52-2.12-9.89L65.58 48c-1.29 1.11-2.58 2.22-3.82 3.43zm-25.38 59.35a.302.302 0 01-.482-.075.3.3 0 01-.028-.185 13.53 13.53 0 000-5.94 6.869 6.869 0 00-3.24-4.2c-2.3-1.33-5-1-7.49.39a17.47 17.47 0 00-6.38 7.23c-2 4.24-1.92 7.64-1.17 10.1a11.728 11.728 0 003.24 4.9 16.987 16.987 0 013.06-3.15c1.36-1.17 2.62-2.17 2.62-2.17A8.806 8.806 0 0121 115c-1.66-1.69-2.7-4.14-1.39-6.76 1.41-2.77 5.37-2.89 8.66-1.31s6 4.75 4.93 8.43c-.315.89-.824 1.7-1.49 2.37a10.93 10.93 0 01-1.15 1.07l4.35 2 1.38.63.09-.22-.25-.23c-1.33-1.21-3.06-3.81-1.7-5.33 2.78-3.09 7.85-2 11.9.59 4.05 2.59 7.16 6.35 5.87 8.85-1.39 3.07-5.33 3-9 2.13a34.925 34.925 0 01-6.87-2.47l.43 2.16.52 2.17 1.08 4.26a19.95 19.95 0 005.78-.9c3-1 6.73-2.84 8.62-7.06a15.327 15.327 0 001.63-5.11c.103-.816.133-1.639.09-2.46a11.784 11.784 0 00-.27-2.3 11.07 11.07 0 00-5.21-7.2 9 9 0 00-6.7-1.13 11.17 11.17 0 00-5.92 3.6z" fill="#fff"/></svg>