<svg width="386" height="386" viewBox="0 0 386 386" fill="none" xmlns="http://www.w3.org/2000/svg">
<path d="M361.3 229.36C361.555 229.501 361.85 229.555 362.139 229.513C362.427 229.472 362.695 229.337 362.9 229.13C363.994 228.132 365.333 227.442 366.78 227.13C367.214 227.029 367.666 227.029 368.1 227.13C368.564 227.206 368.982 227.454 369.271 227.825C369.56 228.196 369.699 228.662 369.66 229.13C369.491 229.741 369.129 230.28 368.628 230.668C368.127 231.056 367.514 231.27 366.88 231.28C366.784 230.754 366.587 230.251 366.3 229.8C366.175 229.6 366.008 229.429 365.812 229.299C365.615 229.169 365.393 229.082 365.16 229.044C364.928 229.006 364.69 229.018 364.462 229.08C364.234 229.141 364.022 229.25 363.84 229.4C363.15 229.79 363.42 230.64 364.1 231.07C368.1 233.57 372.043 236.183 375.93 238.91C377.069 239.723 378.471 240.079 379.86 239.91C379.35 242.06 378.177 243.996 376.506 245.443C374.835 246.889 372.751 247.773 370.55 247.97C365.23 248.28 359.92 248.43 354.68 248.44C349.44 248.45 344.27 248.34 339.01 248.03L339.59 246.56L340.09 245.07L341.09 242.07C344.89 242.13 348.77 242.12 352.58 242.02C353.333 242.01 354.077 241.854 354.77 241.56C355.619 241.204 356.335 240.592 356.82 239.81L359.2 235.75L361.38 231.58C361.516 231.315 361.547 231.009 361.465 230.723C361.383 230.437 361.195 230.193 360.94 230.04C359.56 229.18 356.52 227.36 354.94 226.43C353.486 225.574 351.802 225.189 350.12 225.33C348.352 225.548 346.671 226.22 345.24 227.28C345.49 226.15 345.79 225.02 346.01 223.88L346.62 220.45C351.54 223.25 356.55 226.23 361.3 229.36ZM361.96 232.25C361.25 233.61 360.57 234.96 359.84 236.25L357.54 240.18C357.453 240.346 357.412 240.532 357.42 240.72C357.429 240.907 357.487 241.089 357.588 241.246C357.69 241.404 357.832 241.532 357.999 241.617C358.166 241.702 358.353 241.741 358.54 241.73C363.433 241.483 368.36 241.11 373.32 240.61C373.559 240.583 373.784 240.484 373.966 240.327C374.148 240.169 374.278 239.96 374.339 239.727C374.399 239.494 374.388 239.249 374.306 239.022C374.224 238.796 374.076 238.6 373.88 238.46C370.547 236.133 367.16 233.89 363.72 231.73C363.574 231.647 363.412 231.594 363.245 231.576C363.078 231.557 362.909 231.572 362.748 231.621C362.588 231.67 362.438 231.751 362.31 231.859C362.181 231.967 362.076 232.1 362 232.25H361.96Z" fill="white"/>
<path d="M269.39 347.27C269.437 347.555 269.578 347.817 269.789 348.014C270.001 348.211 270.272 348.333 270.56 348.36C272.03 348.561 273.415 349.167 274.56 350.11C274.906 350.394 275.183 350.753 275.37 351.16C275.604 351.574 275.668 352.063 275.546 352.522C275.425 352.982 275.128 353.376 274.72 353.62C274.151 353.883 273.51 353.95 272.899 353.81C272.287 353.671 271.739 353.333 271.34 352.85C271.687 352.434 271.952 351.955 272.12 351.44C272.199 351.218 272.23 350.981 272.21 350.746C272.19 350.511 272.12 350.283 272.004 350.077C271.888 349.871 271.73 349.693 271.54 349.554C271.349 349.414 271.131 349.318 270.9 349.27C270.17 348.98 269.68 349.74 269.78 350.55C270.33 355.26 270.71 359.89 271.01 364.64C271.089 366.037 271.689 367.353 272.69 368.33C270.646 369.292 268.352 369.59 266.13 369.18C263.993 368.769 262.046 367.678 260.58 366.07C253.542 358.267 246.961 350.063 240.87 341.5L246.87 339.5C249.19 342.487 251.583 345.443 254.05 348.37C254.533 348.959 255.123 349.451 255.79 349.82C256.599 350.273 257.527 350.469 258.45 350.38C261.53 349.94 264.6 349.38 267.73 348.82C268.021 348.753 268.276 348.579 268.444 348.332C268.613 348.086 268.683 347.785 268.64 347.49C268.44 345.86 267.96 342.33 267.64 340.49C267.402 338.817 266.651 337.258 265.49 336.03C264.231 334.8 262.668 333.926 260.96 333.5L267.16 330.32C268.08 335.867 268.823 341.517 269.39 347.27ZM267.56 349.63C264.56 350.15 261.56 350.73 258.56 351.14C258.366 351.155 258.182 351.227 258.028 351.346C257.874 351.465 257.759 351.626 257.695 351.809C257.632 351.992 257.623 352.191 257.67 352.379C257.717 352.567 257.818 352.738 257.96 352.87C259.59 354.72 261.25 356.56 262.96 358.38C264.67 360.2 266.34 361.94 268.07 363.71C268.244 363.865 268.459 363.967 268.689 364.002C268.919 364.037 269.155 364.004 269.367 363.908C269.579 363.811 269.759 363.655 269.883 363.458C270.008 363.262 270.073 363.033 270.07 362.8C269.8 358.74 269.46 354.73 269.07 350.73C269.051 350.555 268.996 350.386 268.908 350.233C268.82 350.081 268.701 349.949 268.559 349.845C268.417 349.741 268.254 349.669 268.082 349.632C267.91 349.595 267.732 349.594 267.56 349.63Z" fill="white"/>
<path d="M76.47 337.92C75.8082 339.986 75.8363 342.211 76.55 344.26C76.8998 345.307 77.4128 346.293 78.07 347.18C78.7701 348.083 79.5989 348.878 80.53 349.54C80.8788 348.187 81.7205 347.014 82.89 346.25C87.83 343.08 92.57 339.88 97.25 336.44C101.93 333 106.45 329.44 110.82 325.81C108.87 324.54 106.89 323.33 104.97 322.02C105.437 323.719 105.457 325.51 105.03 327.22C104.541 328.837 103.563 330.262 102.23 331.3C101.5 331.87 97.05 335.39 92.71 338.49C88.37 341.59 84.03 344.49 84.03 344.49C83.8286 344.614 83.5949 344.676 83.3583 344.668C83.1217 344.66 82.8928 344.582 82.7004 344.444C82.508 344.306 82.3607 344.115 82.277 343.893C82.1933 343.672 82.1769 343.431 82.23 343.2C83.66 338.03 85.34 332.78 87.08 327.72C88.82 322.66 90.67 317.72 92.73 312.72L87.96 308.59C85.8133 313.297 83.7767 318.1 81.85 323C80.89 325.453 79.9567 327.927 79.05 330.42C78.13 332.93 77.29 335.41 76.47 337.92Z" fill="white"/>
<path d="M50.73 312.83C49.6885 314.729 49.2919 316.916 49.6 319.06C49.7503 320.157 50.0638 321.226 50.53 322.23C51.0562 323.25 51.7301 324.187 52.53 325.01C53.1325 323.748 54.1846 322.757 55.48 322.23C60.94 320.07 66.22 317.82 71.48 315.35C76.74 312.88 81.85 310.25 86.84 307.51C85.17 305.89 83.44 304.33 81.84 302.67C81.9631 304.43 81.6362 306.192 80.89 307.79C80.1005 309.284 78.8672 310.496 77.36 311.26C76.53 311.69 71.5 314.26 66.64 316.48C61.78 318.7 56.96 320.72 56.96 320.72C56.7392 320.805 56.4982 320.822 56.2674 320.771C56.0365 320.719 55.8262 320.6 55.6627 320.429C55.4992 320.258 55.3899 320.043 55.3485 319.81C55.3071 319.577 55.3354 319.337 55.43 319.12C57.84 314.3 60.43 309.49 63.15 304.85C65.87 300.21 68.58 295.71 71.57 291.22L67.67 286.22C64.6567 290.427 61.74 294.76 58.92 299.22C56 303.66 53.28 308.23 50.73 312.83Z" fill="white"/>
<path d="M135.55 363C136.766 359.776 139.196 357.156 142.32 355.7C145.286 354.126 148.729 353.699 151.99 354.5C152.473 354.61 152.98 354.542 153.417 354.309C153.854 354.076 154.192 353.693 154.37 353.23L156.37 344.74L159.43 345.45C160.43 345.69 161.43 345.94 162.5 346.1L156.04 378.95C155.928 379.522 155.94 380.112 156.074 380.679C156.209 381.247 156.463 381.779 156.82 382.24C155.44 381.98 154.04 381.77 152.68 381.43L145.87 379.86C142.139 378.877 138.908 376.538 136.81 373.3C135.843 371.787 135.227 370.076 135.009 368.293C134.791 366.511 134.976 364.702 135.55 363ZM141.94 365.27C141.213 367.821 141.144 370.515 141.74 373.1C142.064 374.693 142.848 376.157 143.994 377.31C145.14 378.463 146.599 379.256 148.19 379.59C148.485 379.687 148.802 379.694 149.101 379.61C149.4 379.527 149.667 379.356 149.87 379.121C150.072 378.886 150.2 378.596 150.237 378.287C150.275 377.979 150.22 377.667 150.08 377.39C149.434 375.999 149.279 374.43 149.64 372.94L153.39 357.26C153.422 356.818 153.295 356.379 153.03 356.022C152.766 355.666 152.383 355.417 151.95 355.32C149.95 354.84 147.78 356.21 145.95 358.32C144.162 360.345 142.799 362.709 141.94 365.27Z" fill="white"/>
<path d="M23.63 202.66C27.1473 202.47 30.6029 203.641 33.28 205.93C34.5395 206.992 35.6141 208.256 36.46 209.67C37.3194 211.029 37.8754 212.557 38.09 214.15C38.36 216.79 38.92 219.38 39.36 221.99L36.29 222.57L3.39002 228.78C2.95002 226.23 2.39002 223.7 2.08002 221.14L10.72 219.87C11.21 219.697 11.6247 219.359 11.8928 218.914C12.161 218.469 12.2661 217.944 12.19 217.43C11.9653 215.654 12.0807 213.852 12.53 212.12C13.0041 210.43 13.806 208.85 14.89 207.47C15.9216 206.094 17.2347 204.953 18.7417 204.123C20.2487 203.294 21.9152 202.795 23.63 202.66ZM24.35 209.01C21.6702 209.332 19.0934 210.237 16.8 211.66C14.45 213.15 12.73 215.22 13.02 217.49C13.13 218.37 13.97 219.37 14.82 219.25L30.82 216.9C32.3008 216.68 33.8136 216.888 35.18 217.5C35.4301 217.631 35.7103 217.693 35.9923 217.681C36.2743 217.669 36.548 217.582 36.7856 217.43C37.0232 217.277 37.2163 217.065 37.3453 216.814C37.4743 216.563 37.5346 216.282 37.52 216C37.12 212.82 34.79 211 32.07 210C29.5953 209.129 26.965 208.788 24.35 209V209.01Z" fill="white"/>
<path d="M6.36 200.31L36.76 199.11L36.6 192.83H0C0.1 196.46 0.13 200.09 0.32 203.71C0.36 203.35 1.22 200.5 6.36 200.31Z" fill="white"/>
<path d="M290.46 314.78C288.79 316.06 287.19 317.42 285.46 318.64L288.46 322.64C290.048 324.752 290.983 327.283 291.15 329.92L291.33 333.8C291.345 334.03 291.298 334.26 291.195 334.466C291.091 334.672 290.934 334.846 290.74 334.97C290.546 335.095 290.322 335.165 290.092 335.174C289.861 335.183 289.633 335.13 289.43 335.02C284.18 332.24 279.09 329.24 274.24 326.16C272.44 327.24 270.6 328.26 268.79 329.32C271.063 330.907 273.397 332.467 275.79 334C278.17 335.53 280.6 337 283.03 338.44C283.536 338.736 283.93 339.19 284.153 339.732C284.375 340.274 284.413 340.874 284.26 341.44L290.05 337.73C290.19 337.638 290.353 337.586 290.521 337.579C290.689 337.572 290.855 337.61 291.003 337.69C291.151 337.77 291.274 337.888 291.36 338.033C291.445 338.177 291.49 338.342 291.49 338.51C291.49 341.86 291.49 345.23 291.33 348.66C291.263 350.373 291.177 352.097 291.07 353.83C290.96 355.56 290.8 357.25 290.64 358.98L292.85 357.7L295 356.33L299.29 353.58C296.39 354.23 293.98 354.58 292.73 352.1L292.61 351.83C292.258 350.975 292.101 350.053 292.15 349.13C292.27 345.8 292.35 342.56 292.31 339.29C292.27 336.02 292.13 332.74 291.93 329.54C291.921 329.38 291.966 329.223 292.057 329.091C292.148 328.96 292.28 328.862 292.432 328.814C292.585 328.766 292.749 328.77 292.898 328.825C293.048 328.881 293.176 328.984 293.26 329.12L307.26 348.05C308.62 347.12 309.88 346.05 311.19 345.05L313.41 343.3L314.5 342.44C313.925 342.412 313.362 342.266 312.846 342.012C312.33 341.757 311.872 341.399 311.5 340.96L290.46 314.78Z" fill="white"/>
<path d="M223.1 346.11L216.9 347.22L217.67 352.22C218.098 354.826 217.751 357.5 216.67 359.91L215.03 363.41C214.933 363.617 214.782 363.795 214.594 363.926C214.405 364.056 214.186 364.134 213.957 364.153C213.729 364.171 213.5 364.129 213.293 364.03C213.086 363.931 212.909 363.779 212.78 363.59C209.43 358.81 206.3 353.68 203.43 348.69C202.43 348.76 201.34 348.88 200.29 348.9L197.14 348.98C198.42 351.46 199.753 353.937 201.14 356.41C202.53 358.83 203.98 361.23 205.49 363.63C205.802 364.125 205.942 364.709 205.888 365.291C205.834 365.874 205.588 366.422 205.19 366.85L208.62 366.59C209.76 366.51 210.91 366.42 212.04 366.26C212.205 366.243 212.372 366.271 212.522 366.341C212.673 366.411 212.802 366.521 212.895 366.658C212.988 366.796 213.043 366.956 213.052 367.122C213.062 367.287 213.027 367.453 212.95 367.6C211.43 370.67 209.81 373.6 208.1 376.54C206.39 379.48 204.6 382.45 202.71 385.41C206.1 385.16 209.48 384.92 212.87 384.62C210.01 383.86 207.7 383 207.74 380.23V379.94C207.826 379.024 208.117 378.139 208.59 377.35C209.417 375.923 210.223 374.497 211.01 373.07C211.79 371.63 212.55 370.14 213.3 368.68C214.78 365.747 216.18 362.823 217.5 359.91C217.567 359.766 217.679 359.649 217.82 359.575C217.96 359.502 218.121 359.477 218.277 359.504C218.433 359.532 218.576 359.61 218.683 359.727C218.79 359.843 218.856 359.992 218.87 360.15L222.46 383.39L227.34 382.53L230.12 382.03L231.49 381.78C230.99 381.49 230.554 381.101 230.21 380.637C229.866 380.173 229.621 379.643 229.49 379.08L223.1 346.11Z" fill="white"/>
<path d="M323.67 301.69C321.006 299.571 319.047 296.694 318.05 293.44C317.17 290.23 317.73 286.88 320.24 283.22L320.41 282.98C321.26 281.73 322.21 280.55 323 279.26L325.45 275.44L353.94 293.23C354.433 293.52 354.979 293.707 355.547 293.78C356.114 293.852 356.69 293.808 357.24 293.65L355 297.2C354.1 298.57 353.25 299.98 352.31 301.32L348.02 307.32C346.58 309.32 345.02 311.22 343.49 313.17L336.63 307.68C338.01 308.023 339.451 308.043 340.84 307.74C342.451 307.437 343.999 306.866 345.42 306.05C347.443 304.819 349.27 303.292 350.84 301.52C350.925 301.433 350.991 301.329 351.033 301.215C351.075 301.1 351.091 300.978 351.082 300.857C351.073 300.736 351.037 300.618 350.978 300.511C350.919 300.405 350.838 300.312 350.74 300.24L345 296.4C344.782 296.273 344.539 296.198 344.288 296.179C344.037 296.16 343.784 296.198 343.55 296.29C342.705 296.75 342.01 297.445 341.55 298.29C339.544 301.226 336.48 303.272 333 304C331.372 304.364 329.682 304.346 328.063 303.945C326.444 303.544 324.94 302.772 323.67 301.69ZM326.92 296.09C329.119 297.746 331.691 298.838 334.41 299.27C337.3 299.67 340.18 298.93 342.01 296.2C342.241 295.863 342.328 295.448 342.253 295.047C342.178 294.646 341.947 294.291 341.61 294.06L328.3 285C327.06 284.156 326.086 282.977 325.49 281.6C325.408 281.374 325.278 281.168 325.108 280.998C324.938 280.828 324.733 280.696 324.507 280.613C324.282 280.531 324.041 280.498 323.801 280.518C323.561 280.538 323.329 280.611 323.12 280.73C322.807 281.085 322.519 281.463 322.26 281.86C321.428 282.907 320.892 284.157 320.707 285.482C320.522 286.806 320.696 288.156 321.21 289.39C322.14 291.73 324.22 294 326.93 296.09H326.92Z" fill="white"/>
<path d="M40.07 229.24C40.1283 229.613 40.0387 229.994 39.8202 230.303C39.6017 230.611 39.2715 230.822 38.9 230.89L17.78 236.09L8.61 238.35C8.04729 238.485 7.46247 238.499 6.8938 238.392C6.32512 238.285 5.78542 238.06 5.31 237.73L5.63 239.09L6.06 241L6.58 242.87L7.64 246.6L33.33 239.16C38.27 237.72 41.68 236.16 42.82 240.04L45.1 246.78C46.57 250.52 42.9 251.38 38.1 253.25L13.2 262.94C14.2 265.34 15.05 267.77 16.2 270.11L16.77 271.38C16.947 270.829 17.2379 270.322 17.6238 269.891C18.0098 269.461 18.4821 269.116 19.01 268.88L27.66 265.09L49.72 255.43C48.89 253.71 48.24 251.91 47.53 250.14C46.82 248.37 46.08 246.6 45.53 244.78L43.69 239.35L42.13 233.84C41.8867 232.976 41.8421 232.069 41.9997 231.186C42.1573 230.302 42.513 229.466 43.04 228.74C45.65 224.92 50.88 222.46 50.88 222.46L39.11 224.9L40.07 229.24Z" fill="white"/>
<path d="M162.35 383.24C163.02 383.36 163.68 383.48 164.35 383.55C165.99 383.801 167.668 383.583 169.19 382.921C170.711 382.259 172.015 381.181 172.95 379.81C175.42 375.93 177.77 371.92 179.95 367.97C182.13 364.02 184.24 360.06 186.19 355.97C186.299 355.707 186.5 355.492 186.756 355.366C187.011 355.241 187.304 355.213 187.579 355.288C187.854 355.362 188.092 355.535 188.249 355.773C188.405 356.011 188.47 356.298 188.43 356.58L187.67 385.58C190.25 385.63 192.82 385.75 195.4 385.64H196.79C196.357 385.266 196.006 384.807 195.76 384.29C195.514 383.774 195.378 383.212 195.36 382.64L195.23 373.19L195 349H193.36C191.896 349.034 190.473 349.492 189.263 350.317C188.052 351.142 187.107 352.3 186.54 353.65C184.62 357.77 182.54 361.72 180.39 365.65C178.24 369.58 175.89 373.65 173.44 377.5C173.27 377.743 173.024 377.923 172.742 378.013C172.459 378.104 172.155 378.1 171.875 378.001C171.596 377.902 171.356 377.715 171.192 377.468C171.029 377.22 170.951 376.926 170.97 376.63L174.37 347.84C172.3 347.55 170.21 347.36 168.15 347L162.89 380.11C162.804 380.7 162.591 381.265 162.264 381.764C161.938 382.263 161.506 382.685 161 383L162.35 383.24Z" fill="white"/>
<path d="M96 359.54L97.76 360.54C99.1907 361.398 100.841 361.819 102.508 361.749C104.175 361.68 105.786 361.124 107.14 360.15C109 358.783 110.827 357.4 112.62 356C114.41 354.61 116.19 353.18 117.95 351.7C121.463 348.76 124.853 345.76 128.12 342.7C128.309 342.497 128.567 342.374 128.843 342.353C129.12 342.333 129.393 342.417 129.61 342.59C129.837 342.758 129.998 342.999 130.066 343.273C130.133 343.547 130.103 343.836 129.98 344.09L118.84 370.87L126.06 373.71C126.49 373.89 126.93 374.03 127.37 374.18C127.093 373.67 126.927 373.106 126.884 372.527C126.841 371.948 126.921 371.366 127.12 370.82L130.39 361.96L138.73 339.37L137.2 338.76C134.59 337.7 131.45 338.56 129.2 340.69C122.618 346.94 115.666 352.787 108.38 358.2C108.138 358.367 107.847 358.45 107.553 358.437C107.259 358.424 106.978 358.315 106.751 358.127C106.525 357.939 106.366 357.683 106.299 357.396C106.232 357.109 106.26 356.809 106.38 356.54L119.86 331L118.46 330.29L117.1 329.51L114.38 327.94L97.51 356.94C97.2158 357.448 96.818 357.889 96.3426 358.233C95.8671 358.578 95.3245 358.819 94.75 358.94L96 359.54Z" fill="white"/>
<path d="M19.26 276.9L20.18 278.71C20.894 280.217 22.03 281.483 23.4501 282.357C24.8702 283.23 26.5134 283.673 28.18 283.63C32.8467 283.417 37.4167 283.083 41.89 282.63L45.25 282.27L48.64 281.83C50.8933 281.523 53.13 281.19 55.35 280.83C55.6304 280.769 55.9234 280.814 56.1731 280.955C56.4228 281.096 56.6119 281.325 56.7045 281.596C56.7971 281.868 56.7866 282.164 56.6752 282.428C56.5637 282.692 56.359 282.907 56.1 283.03L31.9 299L32.9 300.63L34.02 302.21L36.26 305.37L37.07 306.5C37.1314 305.922 37.3125 305.363 37.6017 304.858C37.8909 304.354 38.282 303.915 38.75 303.57L46.41 298.05L66 284L65 282.66C64.1088 281.505 62.9132 280.622 61.5477 280.11C60.1821 279.598 58.7007 279.477 57.27 279.76C52.87 280.5 48.27 281.18 43.84 281.63C39.41 282.08 34.84 282.46 30.18 282.7C29.8718 282.715 29.5676 282.624 29.3184 282.442C29.0691 282.26 28.8897 281.998 28.81 281.7C28.721 281.412 28.7352 281.101 28.8502 280.822C28.9651 280.543 29.1737 280.312 29.44 280.17L54.99 266.48L52.13 260.89L22 275.56C21.4774 275.81 20.9077 275.946 20.3286 275.96C19.7494 275.974 19.1739 275.865 18.64 275.64C18.86 276.06 19 276.49 19.26 276.9Z" fill="white"/>
<path d="M323.91 334.22C323.91 334.22 323.6 334.39 323.11 334.63C322.483 334.943 321.83 335.204 321.16 335.41C319.62 335.89 317.82 336.19 316.72 335.54C316.423 335.307 316.192 335 316.05 334.65C315.838 334.21 315.677 333.747 315.57 333.27C314.86 330.27 314.15 327.33 313.32 324.36C312.49 321.39 311.61 318.47 310.68 315.59C310.61 315.381 310.602 315.157 310.657 314.944C310.712 314.731 310.827 314.539 310.988 314.39C311.15 314.24 311.352 314.141 311.568 314.104C311.785 314.067 312.008 314.093 312.21 314.18C316.09 315.73 319.92 317.06 323.89 318.38C327.86 319.7 331.89 320.93 335.96 322.03L341.05 316.16C331.833 314.047 322.753 311.375 313.86 308.16L310.99 311.16C310.834 311.296 310.647 311.39 310.445 311.436C310.244 311.481 310.034 311.474 309.835 311.418C309.637 311.361 309.455 311.256 309.308 311.111C309.16 310.967 309.051 310.787 308.99 310.59L308.11 308.11L307.43 306.29C306.9 304.87 306.33 302.38 308.35 301.95C308.732 301.888 309.123 301.916 309.492 302.03C309.862 302.145 310.2 302.343 310.48 302.61C310.602 301.999 310.602 301.371 310.48 300.76C310.377 300.168 310.086 299.624 309.65 299.21C309.214 298.796 308.657 298.533 308.06 298.46C306.17 298.09 304.14 299.98 305.24 302.83C305.83 304.35 306.43 305.89 306.97 307.42C307.51 308.95 308.04 310.48 308.56 312.03C309.593 315.13 310.573 318.28 311.5 321.48C312.45 324.71 313.24 327.87 314.01 331.13C314.78 334.39 315.48 337.68 316.13 341.02L320.02 337.66C321.39 336.54 322.69 335.42 323.91 334.22Z" fill="white"/>
<path d="M349.3 274.87C349.345 274.824 349.403 274.794 349.466 274.784C349.529 274.774 349.594 274.784 349.65 274.813C349.707 274.842 349.753 274.888 349.782 274.945C349.811 275.002 349.821 275.067 349.81 275.13C349.369 277.086 349.369 279.115 349.81 281.07C350.045 281.95 350.452 282.774 351.008 283.495C351.565 284.216 352.259 284.82 353.05 285.27C355.35 286.6 358.05 286.27 360.54 284.88C363.279 283.12 365.471 280.63 366.87 277.69C368.87 273.45 368.79 270.05 368.04 267.59C367.398 265.697 366.282 264.001 364.8 262.66C363.92 263.838 362.892 264.897 361.74 265.81C360.38 266.98 359.12 267.98 359.12 267.98C361.234 268.188 363.202 269.154 364.66 270.7C366.32 272.39 367.36 274.84 366.05 277.46C364.64 280.23 360.68 280.35 357.39 278.77C354.1 277.19 351.39 274.02 352.46 270.34C352.794 269.456 353.32 268.656 354 268C354.357 267.616 354.741 267.259 355.15 266.93L350.8 264.93L349.42 264.3L349.33 264.52L349.58 264.75C350.91 265.96 352.64 268.56 351.28 270.08C348.5 273.17 343.43 272.08 339.38 269.49C335.33 266.9 332.22 263.14 333.51 260.64C334.9 257.57 338.84 257.64 342.51 258.51C344.88 259.091 347.183 259.919 349.38 260.98L348.95 258.82L348.43 256.65L347.35 252.39C345.39 252.404 343.442 252.707 341.57 253.29C338.57 254.29 334.84 256.13 332.95 260.35C332.111 261.944 331.559 263.674 331.32 265.46C331.217 266.276 331.187 267.099 331.23 267.92C331.244 268.694 331.335 269.464 331.5 270.22C331.824 271.715 332.454 273.127 333.351 274.366C334.247 275.605 335.391 276.645 336.71 277.42C338.71 278.658 341.115 279.063 343.41 278.55C345.714 277.98 347.778 276.691 349.3 274.87Z" fill="white"/>
<path d="M24.38 156.29C24.1246 156.149 23.8302 156.095 23.5414 156.137C23.2526 156.178 22.9853 156.313 22.78 156.52C21.6863 157.518 20.3475 158.208 18.9 158.52C18.4658 158.621 18.0142 158.621 17.58 158.52C17.1162 158.444 16.6982 158.196 16.4091 157.825C16.12 157.454 15.9811 156.988 16.02 156.52C16.1886 155.909 16.5507 155.37 17.0519 154.982C17.5531 154.594 18.1665 154.38 18.8 154.37C18.8957 154.896 19.0927 155.399 19.38 155.85C19.5054 156.05 19.6718 156.22 19.8683 156.351C20.0648 156.481 20.2868 156.568 20.5196 156.606C20.7523 156.644 20.9905 156.632 21.2182 156.57C21.4458 156.509 21.6578 156.4 21.84 156.25C22.53 155.86 22.26 155.01 21.58 154.58C17.58 152.08 13.6367 149.467 9.75001 146.74C8.61094 145.927 7.20893 145.571 5.82001 145.74C6.32968 143.589 7.50308 141.654 9.174 140.207C10.8449 138.761 12.9287 137.876 15.13 137.68C20.45 137.37 25.76 137.22 31 137.21C36.24 137.2 41.41 137.31 46.67 137.62L46.09 139.09L45.59 140.58L44.59 143.58C40.79 143.52 36.91 143.53 33.1 143.63C32.3471 143.64 31.6033 143.796 30.91 144.09C30.0615 144.446 29.345 145.058 28.86 145.84L26.48 149.9L24.3 154.07C24.1638 154.334 24.1335 154.641 24.2152 154.927C24.2969 155.213 24.4846 155.457 24.74 155.61C26.12 156.47 29.16 158.29 30.74 159.22C32.1943 160.076 33.8783 160.461 35.56 160.32C37.3276 160.102 39.0086 159.43 40.44 158.37C40.19 159.5 39.89 160.63 39.67 161.77L39.06 165.2C34.14 162.4 29.13 159.42 24.38 156.29ZM23.72 153.4C24.43 152.04 25.11 150.69 25.84 149.4L28.14 145.47C28.227 145.304 28.2684 145.118 28.2599 144.93C28.2514 144.743 28.1934 144.561 28.0917 144.404C27.99 144.246 27.8484 144.118 27.6812 144.033C27.514 143.948 27.3272 143.909 27.14 143.92C22.2467 144.167 17.32 144.54 12.36 145.04C12.1209 145.067 11.8955 145.166 11.7137 145.323C11.5318 145.481 11.402 145.69 11.3414 145.923C11.2807 146.155 11.2921 146.401 11.374 146.627C11.4558 146.854 11.6044 147.05 11.8 147.19C15.1333 149.517 18.52 151.76 21.96 153.92C22.1077 154.01 22.2725 154.068 22.4439 154.09C22.6152 154.112 22.7893 154.098 22.955 154.049C23.1208 154 23.2744 153.917 23.4061 153.805C23.5379 153.694 23.6448 153.556 23.72 153.4Z" fill="white"/>
<path d="M116.29 38.38C116.243 38.0947 116.102 37.833 115.891 37.6358C115.679 37.4386 115.408 37.317 115.12 37.29C113.65 37.0889 112.265 36.483 111.12 35.54C110.774 35.2563 110.497 34.8972 110.31 34.49C110.075 34.0764 110.012 33.5873 110.134 33.1276C110.255 32.6678 110.552 32.2739 110.96 32.03C111.529 31.7672 112.17 31.7002 112.781 31.8395C113.393 31.9788 113.941 32.3165 114.34 32.8C113.993 33.2163 113.728 33.6948 113.56 34.21C113.481 34.4323 113.45 34.6689 113.47 34.904C113.49 35.1391 113.56 35.3672 113.676 35.5728C113.792 35.7785 113.95 35.957 114.14 36.0962C114.331 36.2355 114.549 36.3323 114.78 36.38C115.51 36.67 116 35.91 115.9 35.1C115.35 30.39 114.97 25.76 114.67 21.01C114.596 19.6112 114 18.2911 113 17.31C115.044 16.3475 117.338 16.0503 119.56 16.46C121.697 16.8711 123.644 17.962 125.11 19.57C132.148 27.3733 138.729 35.577 144.82 44.14L138.82 46.14C136.5 43.1534 134.107 40.1967 131.64 37.27C131.157 36.6806 130.567 36.1885 129.9 35.82C129.091 35.3667 128.163 35.1713 127.24 35.26C124.16 35.7 121.09 36.26 117.96 36.82C117.669 36.8872 117.414 37.0612 117.246 37.3075C117.077 37.5539 117.007 37.8546 117.05 38.15C117.25 39.78 117.73 43.31 118.05 45.15C118.288 46.8233 119.039 48.3815 120.2 49.61C121.459 50.8403 123.022 51.7135 124.73 52.14L118.53 55.32C117.603 49.7734 116.857 44.1267 116.29 38.38ZM118.12 36C121.12 35.48 124.12 34.9 127.12 34.49C127.314 34.4745 127.498 34.403 127.652 34.2841C127.806 34.1653 127.921 34.0044 127.985 33.8209C128.048 33.6375 128.057 33.4395 128.01 33.2511C127.963 33.0627 127.862 32.8921 127.72 32.76C126.09 30.91 124.43 29.07 122.72 27.25C121.01 25.43 119.34 23.69 117.61 21.92C117.436 21.7647 117.221 21.6632 116.991 21.6281C116.761 21.593 116.525 21.6256 116.313 21.7221C116.101 21.8186 115.921 21.9748 115.797 22.1715C115.672 22.3682 115.607 22.5971 115.61 22.83C115.88 26.89 116.22 30.9 116.61 34.9C116.629 35.075 116.684 35.2442 116.772 35.3966C116.86 35.549 116.979 35.6813 117.121 35.785C117.263 35.8886 117.426 35.9613 117.598 35.9983C117.77 36.0354 117.948 36.0359 118.12 36Z" fill="white"/>
<path d="M309.21 47.72C309.872 45.6539 309.844 43.4287 309.13 41.38C308.78 40.3327 308.267 39.3472 307.61 38.46C306.91 37.5571 306.081 36.762 305.15 36.1C304.801 37.4526 303.959 38.626 302.79 39.39C297.85 42.56 293.11 45.76 288.43 49.2C283.75 52.64 279.23 56.2 274.86 59.83C276.81 61.1 278.79 62.31 280.71 63.62C280.243 61.9206 280.223 60.1296 280.65 58.42C281.139 56.8032 282.117 55.3778 283.45 54.34C284.18 53.77 288.63 50.25 292.97 47.15C297.31 44.05 301.65 41.15 301.65 41.15C301.851 41.0256 302.085 40.9636 302.322 40.9717C302.558 40.9798 302.787 41.0577 302.98 41.1956C303.172 41.3335 303.319 41.5252 303.403 41.7466C303.487 41.968 303.503 42.2093 303.45 42.44C302.02 47.61 300.34 52.86 298.6 57.92C296.86 62.98 295.01 67.92 292.95 72.92L297.74 77C299.913 72.3333 301.95 67.5433 303.85 62.63C304.81 60.1766 305.743 57.7033 306.65 55.21C307.54 52.72 308.38 50.24 309.21 47.72Z" fill="white"/>
<path d="M334.95 72.82C335.991 70.9206 336.388 68.7343 336.08 66.59C335.93 65.4929 335.616 64.4244 335.15 63.42C334.624 62.4 333.95 61.4632 333.15 60.64C332.547 61.902 331.495 62.8934 330.2 63.42C324.74 65.58 319.46 67.83 314.2 70.3C308.94 72.77 303.83 75.4 298.84 78.14C300.51 79.76 302.24 81.32 303.84 82.98C303.717 81.2204 304.044 79.4584 304.79 77.86C305.58 76.3661 306.813 75.1538 308.32 74.39C309.15 73.96 314.18 71.39 319.04 69.17C323.9 66.95 328.72 64.93 328.72 64.93C328.941 64.8452 329.182 64.8276 329.413 64.8794C329.643 64.9312 329.854 65.05 330.017 65.221C330.181 65.3919 330.29 65.6074 330.332 65.8403C330.373 66.0732 330.345 66.3132 330.25 66.53C327.84 71.35 325.25 76.16 322.53 80.8C319.81 85.44 317.1 89.94 314.11 94.43L318.01 99.43C321.023 95.2234 323.94 90.89 326.76 86.43C329.66 82 332.4 77.42 334.95 72.82Z" fill="white"/>
<path d="M250.13 22.6499C248.914 25.8742 246.484 28.4944 243.36 29.9499C240.393 31.5242 236.951 31.9513 233.69 31.1499C233.207 31.04 232.7 31.1079 232.263 31.3411C231.826 31.5744 231.488 31.9574 231.31 32.4199L229.31 40.9099L226.25 40.1999C225.25 39.9599 224.25 39.7099 223.18 39.5499L229.62 6.69991C229.732 6.12761 229.72 5.53797 229.586 4.97054C229.451 4.4031 229.197 3.871 228.84 3.40991C230.22 3.66991 231.62 3.87991 232.98 4.21991L239.79 5.78991C243.521 6.77268 246.752 9.11179 248.85 12.3499C249.821 13.8615 250.44 15.5717 250.661 17.3544C250.883 19.1371 250.701 20.9467 250.13 22.6499ZM243.74 20.3799C244.467 17.8287 244.536 15.1349 243.94 12.5499C243.616 10.9567 242.832 9.49326 241.686 8.34002C240.54 7.18678 239.081 6.39417 237.49 6.05991C237.195 5.9633 236.878 5.95628 236.579 6.03974C236.28 6.12321 236.013 6.29341 235.81 6.52884C235.608 6.76427 235.48 7.05436 235.443 7.36247C235.405 7.67059 235.46 7.98288 235.6 8.25991C236.23 9.65251 236.371 11.2171 236 12.6999L232.25 28.3799C232.218 28.8222 232.345 29.2614 232.61 29.6174C232.874 29.9735 233.257 30.2228 233.69 30.3199C235.69 30.7999 237.86 29.4299 239.69 27.3199C241.491 25.301 242.868 22.941 243.74 20.3799Z" fill="white"/>
<path d="M362 183C358.483 183.19 355.027 182.019 352.35 179.73C351.091 178.668 350.016 177.404 349.17 175.99C348.311 174.631 347.755 173.103 347.54 171.51C347.27 168.87 346.71 166.28 346.27 163.67L349.34 163.09L382.24 156.88C382.68 159.43 383.24 161.96 383.55 164.52L375 165.79C374.51 165.963 374.095 166.301 373.827 166.746C373.559 167.191 373.454 167.716 373.53 168.23C373.755 170.006 373.639 171.808 373.19 173.54C372.716 175.23 371.914 176.81 370.83 178.19C369.789 179.577 368.461 180.725 366.938 181.555C365.414 182.385 363.73 182.877 362 183ZM361.28 176.65C363.96 176.328 366.537 175.423 368.83 174C371.18 172.51 372.9 170.44 372.61 168.17C372.5 167.29 371.66 166.29 370.81 166.41L354.81 168.76C353.329 168.98 351.816 168.772 350.45 168.16C350.2 168.019 349.916 167.949 349.629 167.956C349.342 167.963 349.062 168.047 348.818 168.199C348.575 168.352 348.377 168.567 348.245 168.822C348.114 169.077 348.053 169.363 348.07 169.65C348.47 172.83 350.8 174.65 353.52 175.65C356.024 176.53 358.686 176.868 361.33 176.64L361.28 176.65Z" fill="white"/>
<path d="M379.32 185.34L348.92 186.54L349.08 192.82H385.68C385.58 189.19 385.55 185.56 385.36 181.94C385.32 182.3 384.46 185.15 379.32 185.34Z" fill="white"/>
<path d="M95.22 70.8699C96.89 69.5899 98.49 68.2299 100.22 67.0099L97.22 63.0099C95.6327 60.8974 94.6977 58.367 94.53 55.7299L94.35 51.8499C94.3349 51.6199 94.3816 51.39 94.4854 51.1842C94.5892 50.9784 94.7463 50.8041 94.9402 50.6796C95.1342 50.555 95.358 50.4847 95.5883 50.476C95.8187 50.4673 96.0472 50.5204 96.25 50.6299C101.5 53.4099 106.59 56.4099 111.44 59.4899C113.24 58.4099 115.08 57.3899 116.89 56.3299C114.617 54.7433 112.283 53.1833 109.89 51.6499C107.51 50.1199 105.08 48.6499 102.65 47.2099C102.144 46.9141 101.75 46.4601 101.528 45.918C101.305 45.3759 101.267 44.7757 101.42 44.2099L95.63 47.9199C95.4889 48.0086 95.3268 48.0581 95.1602 48.0635C94.9937 48.0689 94.8287 48.0299 94.6822 47.9506C94.5357 47.8712 94.4129 47.7543 94.3264 47.6118C94.2399 47.4694 94.1928 47.3065 94.19 47.1399C94.19 43.7899 94.19 40.4199 94.35 36.9899C94.4167 35.2766 94.5034 33.5533 94.61 31.8199C94.72 30.0899 94.88 28.3999 95.04 26.6699L92.83 27.9499L90.68 29.3199L86.42 31.9999C89.32 31.3499 91.73 30.9999 92.98 33.4799L93.1 33.7499C93.4517 34.6047 93.6089 35.5269 93.56 36.4499C93.44 39.7799 93.36 43.0199 93.4 46.2899C93.44 49.5599 93.58 52.8399 93.78 56.0399C93.7887 56.1995 93.7441 56.3574 93.6532 56.4888C93.5623 56.6202 93.4303 56.7176 93.2779 56.7657C93.1255 56.8138 92.9615 56.8099 92.8116 56.7545C92.6617 56.6992 92.5345 56.5955 92.45 56.4599L78.45 37.5299C77.09 38.4599 75.83 39.5299 74.52 40.5299L72.3 42.2799L71.21 43.1399C71.7848 43.1679 72.3477 43.3138 72.8637 43.5684C73.3798 43.8229 73.838 44.1809 74.21 44.6199L95.22 70.8699Z" fill="white"/>
<path d="M162.57 39.54L168.77 38.43L168 33.43C167.572 30.8241 167.92 28.1497 169 25.74L170.64 22.24C170.738 22.0326 170.888 21.8547 171.076 21.7243C171.265 21.5939 171.484 21.5155 171.713 21.4973C171.941 21.479 172.17 21.5214 172.377 21.6202C172.584 21.7191 172.761 21.8708 172.89 22.06C176.24 26.84 179.37 31.97 182.24 36.96C183.24 36.89 184.33 36.77 185.38 36.75L188.53 36.67C187.25 34.19 185.917 31.7133 184.53 29.24C183.14 26.82 181.69 24.42 180.18 22.02C179.868 21.5254 179.728 20.9414 179.782 20.3589C179.836 19.7765 180.082 19.2283 180.48 18.8L177.05 19.06C175.91 19.14 174.76 19.23 173.63 19.39C173.465 19.4069 173.298 19.3789 173.148 19.3087C172.997 19.2386 172.868 19.129 172.775 18.9917C172.682 18.8543 172.627 18.6942 172.618 18.5284C172.608 18.3626 172.643 18.1973 172.72 18.05C174.24 14.98 175.86 12.05 177.57 9.10999C179.28 6.16999 181.07 3.19999 182.96 0.23999C179.57 0.48999 176.19 0.72999 172.8 1.02999C175.66 1.78999 177.97 2.64999 177.93 5.41999V5.70999C177.821 6.63587 177.503 7.52487 177 8.30999C176.173 9.73666 175.367 11.1633 174.58 12.59C173.8 14.03 173.04 15.52 172.29 16.98C170.81 19.9133 169.41 22.8367 168.09 25.75C168.023 25.8937 167.911 26.0113 167.77 26.0846C167.63 26.1579 167.469 26.1829 167.313 26.1555C167.157 26.1282 167.014 26.0501 166.907 25.9334C166.8 25.8167 166.734 25.6678 166.72 25.51L163.19 2.26999L158.31 3.12999L155.53 3.62999L154.16 3.87999C154.66 4.16955 155.096 4.55851 155.44 5.02289C155.784 5.48726 156.029 6.01719 156.16 6.57999L162.57 39.54Z" fill="white"/>
<path d="M62 84C64.6636 86.1192 66.623 88.9955 67.62 92.25C68.5 95.46 67.94 98.81 65.43 102.47L65.26 102.71C64.41 103.96 63.46 105.14 62.67 106.43L60.22 110.25L31.75 92.42C31.2573 92.1295 30.7106 91.9424 30.1433 91.8702C29.5759 91.798 28.9998 91.8422 28.45 92L30.72 88.45C31.62 87.08 32.47 85.67 33.41 84.33L37.7 78.33C39.14 76.33 40.7 74.43 42.23 72.48L49.1 78C47.7199 77.657 46.2793 77.6364 44.89 77.94C43.2795 78.243 41.7313 78.8143 40.31 79.63C38.2874 80.861 36.4605 82.3879 34.89 84.16C34.8118 84.2468 34.7524 84.3488 34.7154 84.4595C34.6784 84.5703 34.6646 84.6876 34.6749 84.8039C34.6853 84.9203 34.7194 85.0333 34.7754 85.1358C34.8313 85.2384 34.9078 85.3283 35 85.4L40.65 89.25C40.8678 89.3764 41.1113 89.452 41.3624 89.4711C41.6135 89.4901 41.8657 89.4522 42.1 89.36C42.9453 88.8997 43.6397 88.2052 44.1 87.36C46.1024 84.4381 49.1539 82.4002 52.62 81.67C54.2569 81.3 55.9576 81.318 57.5863 81.7225C59.215 82.1271 60.7265 82.907 62 84ZM58.75 89.6C56.5508 87.9436 53.9791 86.8518 51.26 86.42C48.37 86.02 45.49 86.76 43.66 89.49C43.4294 89.8268 43.342 90.2415 43.417 90.6428C43.492 91.0441 43.7233 91.3991 44.06 91.63L57.38 100.71C58.6197 101.554 59.5942 102.733 60.19 104.11C60.272 104.336 60.4024 104.542 60.5722 104.712C60.7419 104.882 60.9468 105.014 61.1726 105.096C61.3984 105.179 61.6395 105.212 61.8792 105.192C62.1188 105.172 62.3512 105.099 62.56 104.98C62.8735 104.624 63.1609 104.247 63.42 103.85C64.2521 102.803 64.7884 101.553 64.973 100.228C65.1577 98.904 64.984 97.5544 64.47 96.32C63.54 93.92 61.45 91.64 58.75 89.55V89.6Z" fill="white"/>
<path d="M345.61 156.41C345.552 156.037 345.641 155.655 345.86 155.347C346.078 155.039 346.408 154.828 346.78 154.76L367.9 149.56L377.07 147.3C377.633 147.165 378.218 147.151 378.786 147.258C379.355 147.364 379.895 147.59 380.37 147.92L380.05 146.56L379.61 144.67L379.09 142.8L378 139.08L352.31 146.52C347.37 147.96 343.96 149.52 342.82 145.64L340.54 138.9C339.07 135.16 342.74 134.3 347.54 132.43L372.45 122.7C371.45 120.3 370.6 117.87 369.45 115.53L368.88 114.26C368.703 114.811 368.412 115.318 368.026 115.748C367.64 116.179 367.168 116.524 366.64 116.76L358 120.56L336 130.22C336.83 131.94 337.48 133.74 338.19 135.51C338.9 137.28 339.64 139.05 340.19 140.87L342 146.3L343.56 151.81C343.803 152.674 343.848 153.581 343.69 154.464C343.533 155.348 343.177 156.184 342.65 156.91C340.04 160.73 334.81 163.19 334.81 163.19L346.58 160.75L345.61 156.41Z" fill="white"/>
<path d="M223.33 2.40997C222.66 2.28997 222 2.16997 221.33 2.09997C219.69 1.84914 218.012 2.06718 216.49 2.72893C214.969 3.39068 213.665 4.46918 212.73 5.83997C210.26 9.71997 207.91 13.73 205.73 17.68C203.55 21.63 201.44 25.59 199.49 29.68C199.381 29.9433 199.18 30.158 198.925 30.2836C198.669 30.4093 198.376 30.4373 198.101 30.3625C197.826 30.2876 197.588 30.115 197.431 29.877C197.275 29.6391 197.21 29.3521 197.25 29.07L198.01 0.0699712C195.43 0.0199712 192.86 -0.100029 190.28 0.00997116H188.89C189.323 0.383709 189.674 0.84336 189.92 1.35979C190.166 1.87621 190.302 2.43815 190.32 3.00997L190.45 12.46L190.77 36.54H192.41C193.852 36.5036 195.253 36.0573 196.45 35.2533C197.648 34.4492 198.591 33.3208 199.17 32C201.09 27.88 203.17 23.93 205.32 20C207.47 16.07 209.82 12 212.27 8.14997C212.441 7.90726 212.686 7.72694 212.968 7.6365C213.251 7.54605 213.555 7.55042 213.835 7.64896C214.114 7.7475 214.354 7.9348 214.518 8.18231C214.681 8.42983 214.759 8.72399 214.74 9.01997L211.34 37.81C213.41 38.1 215.5 38.29 217.56 38.65L222.82 5.53997C222.916 4.97011 223.131 4.42695 223.452 3.94613C223.772 3.46531 224.191 3.05768 224.68 2.74997L223.33 2.40997Z" fill="white"/>
<path d="M289.71 26.11L287.95 25.11C286.519 24.2516 284.869 23.8311 283.202 23.9004C281.535 23.9697 279.924 24.5258 278.57 25.5C276.71 26.8666 274.883 28.25 273.09 29.65C271.3 31.04 269.52 32.47 267.76 33.95C264.247 36.89 260.857 39.89 257.59 42.95C257.401 43.1525 257.143 43.2764 256.867 43.2967C256.59 43.3171 256.317 43.2326 256.1 43.06C255.873 42.8923 255.712 42.6506 255.644 42.3767C255.577 42.1028 255.607 41.8139 255.73 41.56L266.87 14.78L259.65 11.94C259.22 11.76 258.78 11.62 258.34 11.47C258.617 11.9804 258.783 12.5438 258.826 13.1231C258.869 13.7024 258.789 14.2842 258.59 14.83L255.32 23.69L247 46.23L248.53 46.84C251.14 47.9 254.28 47.04 256.53 44.91C263.115 38.6598 270.071 32.8125 277.36 27.4C277.602 27.2328 277.893 27.1495 278.187 27.1626C278.481 27.1756 278.762 27.2845 278.989 27.4724C279.215 27.6604 279.374 27.9172 279.441 28.2038C279.508 28.4904 279.48 28.7911 279.36 29.06L265.82 54.68L267.22 55.39L268.58 56.17L271.3 57.74L288.17 28.74C288.464 28.2318 288.862 27.7912 289.337 27.4466C289.813 27.1021 290.355 26.8613 290.93 26.74L289.71 26.11Z" fill="white"/>
<path d="M366.42 108.75L365.5 106.94C364.786 105.433 363.65 104.167 362.23 103.293C360.81 102.42 359.167 101.977 357.5 102.02C352.833 102.233 348.263 102.567 343.79 103.02L340.43 103.38L337.04 103.82C334.787 104.127 332.55 104.46 330.33 104.82C330.05 104.881 329.757 104.836 329.507 104.695C329.257 104.554 329.068 104.325 328.976 104.054C328.883 103.782 328.893 103.486 329.005 103.222C329.116 102.958 329.321 102.743 329.58 102.62L353.77 86.62L352.77 84.99L351.6 83.4L349.36 80.24L348.55 79.11C348.482 79.682 348.297 80.2339 348.006 80.7311C347.715 81.2284 347.325 81.6603 346.86 82L339.2 87.52L319.67 101.6L320.67 102.94C321.561 104.095 322.757 104.978 324.122 105.49C325.488 106.002 326.969 106.123 328.4 105.84C332.8 105.1 337.4 104.42 341.83 103.97C346.26 103.52 350.83 103.14 355.49 102.9C355.798 102.885 356.102 102.976 356.352 103.158C356.601 103.34 356.78 103.602 356.86 103.9C356.949 104.188 356.935 104.499 356.82 104.778C356.705 105.057 356.496 105.288 356.23 105.43L330.68 119.12L333.54 124.71L363.7 110.08C364.215 109.839 364.774 109.707 365.342 109.693C365.91 109.679 366.474 109.784 367 110C366.82 109.59 366.63 109.16 366.42 108.75Z" fill="white"/>
<path d="M61.76 51.43C61.76 51.43 62.07 51.26 62.56 51.02C63.1874 50.7067 63.8396 50.4459 64.51 50.24C66.05 49.76 67.85 49.46 68.95 50.11C69.2473 50.343 69.4783 50.6499 69.62 51C69.8317 51.4404 69.9927 51.9033 70.1 52.38C70.81 55.38 71.52 58.32 72.35 61.29C73.18 64.26 74.06 67.17 75 70C75.0699 70.2085 75.0779 70.4328 75.0232 70.6458C74.9685 70.8588 74.8533 71.0514 74.6916 71.2005C74.5299 71.3495 74.3285 71.4486 74.1118 71.4858C73.895 71.5229 73.6721 71.4966 73.47 71.41C69.59 69.86 65.76 68.53 61.79 67.21C57.82 65.89 53.79 64.66 49.72 63.56L44.63 69.43C53.847 71.5433 62.9271 74.2149 71.82 77.43L74.69 74.43C74.8458 74.2942 75.033 74.1995 75.2346 74.1545C75.4363 74.1095 75.646 74.1155 75.8447 74.1722C76.0434 74.2288 76.2248 74.3342 76.3725 74.4788C76.5201 74.6233 76.6292 74.8025 76.69 75L77.57 77.48L78.25 79.3C78.78 80.72 79.35 83.21 77.33 83.64C76.9435 83.7106 76.5457 83.6895 76.1688 83.5784C75.7919 83.4672 75.4464 83.2691 75.16 83C75.0377 83.6106 75.0377 84.2394 75.16 84.85C75.263 85.4424 75.5539 85.9859 75.9897 86.4001C76.4255 86.8144 76.9831 87.0773 77.58 87.15C79.47 87.52 81.5 85.63 80.4 82.78C79.81 81.26 79.21 79.72 78.67 78.19C78.13 76.66 77.56 75.17 77 73.62C75.9933 70.54 75.0267 67.39 74.1 64.17C73.15 60.94 72.36 57.78 71.59 54.52C70.82 51.26 70.12 48 69.47 44.63L65.58 48C64.29 49.11 63 50.22 61.76 51.43Z" fill="white"/>
<path d="M36.38 110.78C36.3353 110.826 36.2772 110.856 36.2141 110.866C36.1511 110.876 36.0864 110.866 36.0295 110.837C35.9726 110.808 35.9265 110.762 35.8978 110.705C35.8691 110.648 35.8594 110.583 35.87 110.52C36.3107 108.564 36.3107 106.535 35.87 104.58C35.6352 103.7 35.2279 102.876 34.6717 102.155C34.1155 101.434 33.4215 100.83 32.63 100.38C30.33 99.0499 27.63 99.3799 25.14 100.77C22.3772 102.534 20.1663 105.039 18.76 108C16.76 112.24 16.84 115.64 17.59 118.1C18.2369 119.982 19.3519 121.668 20.83 123C21.7095 121.822 22.7381 120.763 23.89 119.85C25.25 118.68 26.51 117.68 26.51 117.68C24.4116 117.475 22.4563 116.524 21 115C19.34 113.31 18.3 110.86 19.61 108.24C21.02 105.47 24.98 105.35 28.27 106.93C31.56 108.51 34.27 111.68 33.2 115.36C32.8846 116.25 32.3757 117.06 31.71 117.73C31.3529 118.114 30.9686 118.471 30.56 118.8L34.91 120.8L36.29 121.43L36.38 121.21L36.13 120.98C34.8 119.77 33.07 117.17 34.43 115.65C37.21 112.56 42.28 113.65 46.33 116.24C50.38 118.83 53.49 122.59 52.2 125.09C50.81 128.16 46.87 128.09 43.2 127.22C40.83 126.639 38.5274 125.811 36.33 124.75L36.76 126.91L37.28 129.08L38.36 133.34C40.3204 133.326 42.268 133.022 44.14 132.44C47.14 131.44 50.87 129.6 52.76 125.38C53.5994 123.786 54.1512 122.056 54.39 120.27C54.4932 119.454 54.5233 118.631 54.48 117.81C54.4657 117.036 54.3753 116.266 54.21 115.51C53.8861 114.015 53.256 112.603 52.3593 111.364C51.4625 110.125 50.3187 109.085 49 108.31C47.0001 107.072 44.5952 106.667 42.3 107.18C39.995 107.722 37.9219 108.983 36.38 110.78Z" fill="white"/>
</svg>
